<mxfile host="app.diagrams.net" agent="Mozilla/5.0 (Macintosh; Intel Mac OS X 10_15_7) AppleWebKit/537.36 (KHTML, like Gecko) Chrome/137.0.0.0 Safari/537.36" version="27.1.0">
  <diagram name="Page-1" id="f-pgesh5ZNu8k3brizg-">
    <mxGraphModel dx="1371" dy="878" grid="1" gridSize="10" guides="1" tooltips="1" connect="1" arrows="1" fold="1" page="1" pageScale="1" pageWidth="1169" pageHeight="827" math="0" shadow="0">
      <root>
        <mxCell id="0" />
        <mxCell id="1" parent="0" />
        <mxCell id="WIZIczAgmzSDIAD61xHs-19" value="&lt;h1&gt;API Communication and Security Architecture&lt;/h1&gt;" style="text;html=1;align=center;verticalAlign=middle;resizable=0;points=[];autosize=1;strokeColor=none;fillColor=none;" parent="1" vertex="1">
          <mxGeometry x="310" y="18" width="550" height="70" as="geometry" />
        </mxCell>
        <mxCell id="Mudxv_R2OKV88G6gSwlo-3" value="AWS Cloud" style="points=[[0,0],[0.25,0],[0.5,0],[0.75,0],[1,0],[1,0.25],[1,0.5],[1,0.75],[1,1],[0.75,1],[0.5,1],[0.25,1],[0,1],[0,0.75],[0,0.5],[0,0.25]];outlineConnect=0;gradientColor=none;html=1;whiteSpace=wrap;fontSize=12;fontStyle=0;container=1;pointerEvents=0;collapsible=0;recursiveResize=0;shape=mxgraph.aws4.group;grIcon=mxgraph.aws4.group_aws_cloud_alt;strokeColor=#232F3E;fillColor=none;verticalAlign=top;align=left;spacingLeft=30;fontColor=#232F3E;dashed=0;" vertex="1" parent="1">
          <mxGeometry x="110" y="180" width="990" height="500" as="geometry" />
        </mxCell>
        <mxCell id="Mudxv_R2OKV88G6gSwlo-41" value="AWS network backbone" style="dashed=1;verticalAlign=top;fontStyle=0;whiteSpace=wrap;html=1;strokeColor=#545454;fillColor=none;" vertex="1" parent="Mudxv_R2OKV88G6gSwlo-3">
          <mxGeometry x="310" y="149" width="340" height="241" as="geometry" />
        </mxCell>
        <mxCell id="Mudxv_R2OKV88G6gSwlo-24" value="Private subnet" style="points=[[0,0],[0.25,0],[0.5,0],[0.75,0],[1,0],[1,0.25],[1,0.5],[1,0.75],[1,1],[0.75,1],[0.5,1],[0.25,1],[0,1],[0,0.75],[0,0.5],[0,0.25]];outlineConnect=0;gradientColor=none;html=1;whiteSpace=wrap;fontSize=12;fontStyle=0;container=1;pointerEvents=0;collapsible=0;recursiveResize=0;shape=mxgraph.aws4.group;grIcon=mxgraph.aws4.group_security_group;grStroke=0;strokeColor=#00A4A6;fillColor=#E6F6F7;verticalAlign=top;align=left;spacingLeft=30;fontColor=#147EBA;dashed=0;" vertex="1" parent="Mudxv_R2OKV88G6gSwlo-3">
          <mxGeometry x="507.5" y="194" width="130" height="156" as="geometry" />
        </mxCell>
        <mxCell id="Mudxv_R2OKV88G6gSwlo-22" value="Knowledege Base (RAG)" style="fillColor=none;strokeColor=#5A6C86;dashed=1;verticalAlign=top;fontStyle=0;fontColor=#5A6C86;whiteSpace=wrap;html=1;" vertex="1" parent="Mudxv_R2OKV88G6gSwlo-3">
          <mxGeometry x="690" y="100" width="280" height="300" as="geometry" />
        </mxCell>
        <mxCell id="Mudxv_R2OKV88G6gSwlo-8" value="AWS Global optimized network" style="fillColor=none;strokeColor=#5A6C86;dashed=1;verticalAlign=top;fontStyle=0;fontColor=#5A6C86;whiteSpace=wrap;html=1;" vertex="1" parent="Mudxv_R2OKV88G6gSwlo-3">
          <mxGeometry x="30" y="100" width="420" height="300" as="geometry" />
        </mxCell>
        <mxCell id="WIZIczAgmzSDIAD61xHs-4" value="RAG Processing Layer (VPC)" style="points=[[0,0],[0.25,0],[0.5,0],[0.75,0],[1,0],[1,0.25],[1,0.5],[1,0.75],[1,1],[0.75,1],[0.5,1],[0.25,1],[0,1],[0,0.75],[0,0.5],[0,0.25]];outlineConnect=0;gradientColor=none;html=1;whiteSpace=wrap;fontSize=12;fontStyle=0;container=0;pointerEvents=0;collapsible=0;recursiveResize=0;shape=mxgraph.aws4.group;grIcon=mxgraph.aws4.group_vpc2;strokeColor=#8C4FFF;fillColor=none;verticalAlign=top;align=left;spacingLeft=30;fontColor=#AAB7B8;dashed=0;" parent="Mudxv_R2OKV88G6gSwlo-3" vertex="1">
          <mxGeometry x="485" y="100" width="175" height="300" as="geometry" />
        </mxCell>
        <mxCell id="Mudxv_R2OKV88G6gSwlo-9" value="edge location" style="sketch=0;outlineConnect=0;fontColor=#232F3E;gradientColor=none;fillColor=#8C4FFF;strokeColor=none;dashed=0;verticalLabelPosition=bottom;verticalAlign=top;align=center;html=1;fontSize=12;fontStyle=0;aspect=fixed;pointerEvents=1;shape=mxgraph.aws4.edge_location;" vertex="1" parent="Mudxv_R2OKV88G6gSwlo-3">
          <mxGeometry x="61" y="338.5" width="25" height="25" as="geometry" />
        </mxCell>
        <mxCell id="Mudxv_R2OKV88G6gSwlo-27" value="" style="edgeStyle=orthogonalEdgeStyle;rounded=0;orthogonalLoop=1;jettySize=auto;html=1;" edge="1" parent="Mudxv_R2OKV88G6gSwlo-3" source="Mudxv_R2OKV88G6gSwlo-11" target="Mudxv_R2OKV88G6gSwlo-13">
          <mxGeometry relative="1" as="geometry" />
        </mxCell>
        <mxCell id="Mudxv_R2OKV88G6gSwlo-11" value="WAF" style="sketch=0;points=[[0,0,0],[0.25,0,0],[0.5,0,0],[0.75,0,0],[1,0,0],[0,1,0],[0.25,1,0],[0.5,1,0],[0.75,1,0],[1,1,0],[0,0.25,0],[0,0.5,0],[0,0.75,0],[1,0.25,0],[1,0.5,0],[1,0.75,0]];outlineConnect=0;fontColor=#232F3E;fillColor=#DD344C;strokeColor=#ffffff;dashed=0;verticalLabelPosition=bottom;verticalAlign=top;align=center;html=1;fontSize=12;fontStyle=0;aspect=fixed;shape=mxgraph.aws4.resourceIcon;resIcon=mxgraph.aws4.waf;" vertex="1" parent="Mudxv_R2OKV88G6gSwlo-3">
          <mxGeometry x="61" y="175" width="78" height="78" as="geometry" />
        </mxCell>
        <mxCell id="Mudxv_R2OKV88G6gSwlo-28" value="" style="edgeStyle=orthogonalEdgeStyle;rounded=0;orthogonalLoop=1;jettySize=auto;html=1;" edge="1" parent="Mudxv_R2OKV88G6gSwlo-3" source="Mudxv_R2OKV88G6gSwlo-13" target="Mudxv_R2OKV88G6gSwlo-14">
          <mxGeometry relative="1" as="geometry" />
        </mxCell>
        <mxCell id="Mudxv_R2OKV88G6gSwlo-13" value="Cloudfront" style="sketch=0;points=[[0,0,0],[0.25,0,0],[0.5,0,0],[0.75,0,0],[1,0,0],[0,1,0],[0.25,1,0],[0.5,1,0],[0.75,1,0],[1,1,0],[0,0.25,0],[0,0.5,0],[0,0.75,0],[1,0.25,0],[1,0.5,0],[1,0.75,0]];outlineConnect=0;fontColor=#232F3E;fillColor=#8C4FFF;strokeColor=#ffffff;dashed=0;verticalLabelPosition=bottom;verticalAlign=top;align=center;html=1;fontSize=12;fontStyle=0;aspect=fixed;shape=mxgraph.aws4.resourceIcon;resIcon=mxgraph.aws4.cloudfront;" vertex="1" parent="Mudxv_R2OKV88G6gSwlo-3">
          <mxGeometry x="201" y="175" width="78" height="78" as="geometry" />
        </mxCell>
        <mxCell id="Mudxv_R2OKV88G6gSwlo-31" value="" style="edgeStyle=orthogonalEdgeStyle;rounded=0;orthogonalLoop=1;jettySize=auto;html=1;" edge="1" parent="Mudxv_R2OKV88G6gSwlo-3" source="Mudxv_R2OKV88G6gSwlo-15" target="Mudxv_R2OKV88G6gSwlo-16">
          <mxGeometry relative="1" as="geometry" />
        </mxCell>
        <mxCell id="Mudxv_R2OKV88G6gSwlo-15" value="lambdas&lt;br&gt;serverless scaling" style="sketch=0;outlineConnect=0;fontColor=#232F3E;gradientColor=none;fillColor=#ED7100;strokeColor=none;dashed=0;verticalLabelPosition=bottom;verticalAlign=top;align=center;html=1;fontSize=12;fontStyle=0;aspect=fixed;pointerEvents=1;shape=mxgraph.aws4.lambda_function;" vertex="1" parent="Mudxv_R2OKV88G6gSwlo-3">
          <mxGeometry x="533.5" y="220" width="78" height="78" as="geometry" />
        </mxCell>
        <mxCell id="Mudxv_R2OKV88G6gSwlo-29" value="" style="edgeStyle=orthogonalEdgeStyle;rounded=0;orthogonalLoop=1;jettySize=auto;html=1;" edge="1" parent="Mudxv_R2OKV88G6gSwlo-3" source="Mudxv_R2OKV88G6gSwlo-14" target="Mudxv_R2OKV88G6gSwlo-18">
          <mxGeometry relative="1" as="geometry" />
        </mxCell>
        <mxCell id="Mudxv_R2OKV88G6gSwlo-30" value="" style="edgeStyle=orthogonalEdgeStyle;rounded=0;orthogonalLoop=1;jettySize=auto;html=1;" edge="1" parent="Mudxv_R2OKV88G6gSwlo-3" source="Mudxv_R2OKV88G6gSwlo-14" target="Mudxv_R2OKV88G6gSwlo-15">
          <mxGeometry relative="1" as="geometry" />
        </mxCell>
        <mxCell id="Mudxv_R2OKV88G6gSwlo-14" value="HTTP API Gateway" style="sketch=0;points=[[0,0,0],[0.25,0,0],[0.5,0,0],[0.75,0,0],[1,0,0],[0,1,0],[0.25,1,0],[0.5,1,0],[0.75,1,0],[1,1,0],[0,0.25,0],[0,0.5,0],[0,0.75,0],[1,0.25,0],[1,0.5,0],[1,0.75,0]];outlineConnect=0;fontColor=#232F3E;fillColor=#E7157B;strokeColor=#ffffff;dashed=0;verticalLabelPosition=bottom;verticalAlign=top;align=center;html=1;fontSize=12;fontStyle=0;aspect=fixed;shape=mxgraph.aws4.resourceIcon;resIcon=mxgraph.aws4.api_gateway;" vertex="1" parent="Mudxv_R2OKV88G6gSwlo-3">
          <mxGeometry x="341" y="175" width="78" height="78" as="geometry" />
        </mxCell>
        <mxCell id="Mudxv_R2OKV88G6gSwlo-35" style="edgeStyle=orthogonalEdgeStyle;rounded=0;orthogonalLoop=1;jettySize=auto;html=1;startArrow=classic;startFill=1;" edge="1" parent="Mudxv_R2OKV88G6gSwlo-3" source="Mudxv_R2OKV88G6gSwlo-16" target="Mudxv_R2OKV88G6gSwlo-21">
          <mxGeometry relative="1" as="geometry" />
        </mxCell>
        <mxCell id="Mudxv_R2OKV88G6gSwlo-39" value="Vector Database" style="edgeLabel;html=1;align=center;verticalAlign=middle;resizable=0;points=[];" vertex="1" connectable="0" parent="Mudxv_R2OKV88G6gSwlo-35">
          <mxGeometry x="0.1311" y="2" relative="1" as="geometry">
            <mxPoint as="offset" />
          </mxGeometry>
        </mxCell>
        <mxCell id="Mudxv_R2OKV88G6gSwlo-16" value="Bedrock" style="sketch=0;points=[[0,0,0],[0.25,0,0],[0.5,0,0],[0.75,0,0],[1,0,0],[0,1,0],[0.25,1,0],[0.5,1,0],[0.75,1,0],[1,1,0],[0,0.25,0],[0,0.5,0],[0,0.75,0],[1,0.25,0],[1,0.5,0],[1,0.75,0]];outlineConnect=0;fontColor=#232F3E;fillColor=#01A88D;strokeColor=#ffffff;dashed=0;verticalLabelPosition=bottom;verticalAlign=top;align=center;html=1;fontSize=12;fontStyle=0;aspect=fixed;shape=mxgraph.aws4.resourceIcon;resIcon=mxgraph.aws4.bedrock;" vertex="1" parent="Mudxv_R2OKV88G6gSwlo-3">
          <mxGeometry x="710" y="220" width="78" height="78" as="geometry" />
        </mxCell>
        <mxCell id="Mudxv_R2OKV88G6gSwlo-18" value="Custom Authorizer" style="sketch=0;outlineConnect=0;fontColor=#232F3E;gradientColor=none;fillColor=#ED7100;strokeColor=none;dashed=0;verticalLabelPosition=bottom;verticalAlign=top;align=center;html=1;fontSize=12;fontStyle=0;aspect=fixed;pointerEvents=1;shape=mxgraph.aws4.lambda_function;" vertex="1" parent="Mudxv_R2OKV88G6gSwlo-3">
          <mxGeometry x="356" y="315.5" width="48" height="48" as="geometry" />
        </mxCell>
        <mxCell id="Mudxv_R2OKV88G6gSwlo-34" style="edgeStyle=orthogonalEdgeStyle;rounded=0;orthogonalLoop=1;jettySize=auto;html=1;startArrow=classic;startFill=1;" edge="1" parent="Mudxv_R2OKV88G6gSwlo-3" source="Mudxv_R2OKV88G6gSwlo-20" target="Mudxv_R2OKV88G6gSwlo-16">
          <mxGeometry relative="1" as="geometry" />
        </mxCell>
        <mxCell id="Mudxv_R2OKV88G6gSwlo-38" value="KB Source" style="edgeLabel;html=1;align=center;verticalAlign=middle;resizable=0;points=[];" vertex="1" connectable="0" parent="Mudxv_R2OKV88G6gSwlo-34">
          <mxGeometry x="-0.2771" y="-3" relative="1" as="geometry">
            <mxPoint as="offset" />
          </mxGeometry>
        </mxCell>
        <mxCell id="Mudxv_R2OKV88G6gSwlo-20" value="Document Chunks" style="sketch=0;points=[[0,0,0],[0.25,0,0],[0.5,0,0],[0.75,0,0],[1,0,0],[0,1,0],[0.25,1,0],[0.5,1,0],[0.75,1,0],[1,1,0],[0,0.25,0],[0,0.5,0],[0,0.75,0],[1,0.25,0],[1,0.5,0],[1,0.75,0]];outlineConnect=0;fontColor=#232F3E;fillColor=#7AA116;strokeColor=#ffffff;dashed=0;verticalLabelPosition=bottom;verticalAlign=top;align=center;html=1;fontSize=12;fontStyle=0;aspect=fixed;shape=mxgraph.aws4.resourceIcon;resIcon=mxgraph.aws4.s3;" vertex="1" parent="Mudxv_R2OKV88G6gSwlo-3">
          <mxGeometry x="850" y="124" width="78" height="78" as="geometry" />
        </mxCell>
        <mxCell id="Mudxv_R2OKV88G6gSwlo-21" value="Pinecone" style="shape=image;verticalLabelPosition=bottom;labelBackgroundColor=default;verticalAlign=top;aspect=fixed;imageAspect=0;image=data:image/png,iVBORw0KGgoAAAANSUhEUgAAALIAAACyCAMAAADRVGVaAAAASFBMVEX///8gHR7x8fHHx8ctKyxXVVaPjo5zcnLj4+NJR0irqqvV1dU7OTqBgIBlY2S5ubmdnJ0mJCU2NDR6eXlZV1hCQEGIh4deXF0qec8KAAAHPklEQVR4nO1c17akKhBtQQSzZ+aG///TayAUUewRca3LfjrBbrdYtStQ+vkUFBQUFBQUFBQUFBQUFBQUFBQUFBRcBaNVRVluFheAflcbapSbSDS6ujow5GYSCUwqCZqbTAwQrSCW3HzO0dSVDpyb0QnwUJmo+9ykQmDEIryifa9soMZFeMWUm5kPnWnECmNubm6MGskfnXOXm50TPWBIsLnO73RBKccD/gjKcunfGbnRYct1s/7MHbH+TO+WjZ0n3alxpuSDWsH5nZF7WI34+KmVSsGkjrwkciO8oWua/TcshQEIhXLLbMkzWqZ2IMSIc/oxgua+5h236zkH2w3KOAOUO+2vu5QM+WRudDI2KHPBEPn9ekdIRsFwL7JBmVuNyC3QkFUu3IwN1+Iq0Yjfs2py76Gs5fGI/zGbw2noXHxrQjTnEuHaULWBZnFBmBK3qyQ7DxJpqP7X7ULaDCmdJsd+p0K4oS3R/3akTfX4dETRS7vm/AMSTH6KPGrjqNJx4T5Dkxqa5zTESt3jK36j9KZP9QoWcUIpFrEiYKvjsDyy1Dxct8oNo8sN1Fgtjpo+QJoIqVDZ0YVyY55M0m1Crhz8TI0sm6qt9IgHG43OQXLxEEK1uU4vT34t5+m0xOqKTH4FLRJL9bjYdOt+AcrJqytZOB/n9jFG2B/hsJ69Jpc6WTgf2K+gNRmjTVY8Kb3VZ0wuGapwPkAdgtH9eIWEUYPwA/sSlgESU1nVnsNf5oeR1Sy/pjbfYaEkaIDanoMhBs7GaHLB2MFm73kWnRXMmZge+lrHIRlg7TloUgL/OXRCIFOXKUFBYlYwXqkBQ1c54NZnFOlVYsZjyPIcrlXpKYTwyxF9QHqVFDRgerO9D3UAxPJjmfmuttHoSAJ0nMSZxbj3oQ6AgEwr2Ri1Gh0pGHMXd6YTmk2Y3SR1kWyQP8P0KhFU1lY7sodFERxmnobI7R3nRXoaHUkYuxN6sbL1WoXyYELUzonjE6J0TcYYdIjc2Q5ftIl9QBoiLcQRlKn3P7cz9iXzmyYPh2HyI5cPGvyfMtOrmwHSBu8pWF1zaQD9e2VOljbK60oBmOgEEoJZGMzMj0XgZ9sA1jxlahMJBthmiNvr0Pr3S9iccIr8nqkyLbLAI9q60pObcz+AuA2R1Tv3ORHW2qp+duhFD8SENoEylMMwezQFPoESGEZloybjErDBK3lwl2LTx0HZrQCKBj/i/Lv3guD+gO3L0PyrE5sH86r2/uTT6iZXunPZWEgdQ0V21u/3Tc8yhysq3NBTXRN7tPdnGXJ/Qx8V+nMTlH3T+zufYjVahJdRrvkNXyzSz/vbRXI1jlu93XRyy900vvhOyNUAWnyLNAk5vH9OSma9t1eWyb443WrMyZZZFkS3lBBkamZhV8Kb7w/bMp5EmDCjhIT8iYvmlqdc++KLEKtxGl15BRNYNRhOh+nv2C++DBlPTqLrfO5Qnmnh+8O2KP+Cegy7XF4Kju7ovuC3U0bnHTSkDXZ5iy7PLFWCsH0Mcwa8xNxU8G0SexgnsOY1npBAnYHthM9jQ91InH3oBG0jzwzRDmTtjO33xH/8NsMTfXQKLJ4J/JN0p+/+AR98crLL8RiJwIly9Wqlf57sG3hEa0e4VwNaJGk6HR1pmmaxuxgwNBBz6i80W9KddKz/HFx1LWFWcyR1J/nLO+6XLnB1U6KNd65ituKLc29DZKLPra7Dl/wBjUmmFcTrUft/yG4xss8daCxvgKqYboLEoiytulcdRsVC3XeHC8Ix84RN0UGnjCbFpRGDhXD+XrplbX+XctmkT9Xxc/DfcO1qYcH+vbBWl37JVU47nQ8p86TNUg+tf3/wsmZ4IOfEj/MAyr2Id+YC6nNH2xMwPv3a3TPxICJWC6gs0dyCNPr3faC+XTmnToSwWEAGUzBjmU0RCBWhXfL9E0EZZm2m82D3heQCFwOYZo7WrJmuKh6wp0atrcLYIV78GEf/fgY7hlPVNo8kxyZlpxQcO6ZWKrSGHdDDOmzqgRc66JTrkO+YF3PUAOJCtHCTFFomT64skegV8KtMPdSg8P30rqDMh2WGb77jK8Civx2vuI9MKPaFFZnTAw5o9Clq2kUbo3zQATw3/MRrPhydCrJEmrR03T75sAsEc/YqItMEYRrts8/UMfrLphyZJ8jrHcUgfFquCv1idqVixU6O0T0xNWkAdROwkPgRU6NB8/TMMh5Fig+dCNP1Wgbfk3xId4UMT5CzZeIKICADhmcBZ8j4gWeMXEAzBeIKOvhQDKr9oVYyNk3zL6D8zPh9GHCbCe472hpTGXcnG7RAo0zD8/jzYxIXguZcSsE8IzOveLuOxkjllR7Kr3hRjYfy7Kb8ivenaHsPKvFw76S+4/Up2i6lnvL0GM+rxlH5BpAnHlaNAIuN4izJKO1XUO3kd7/UDGLm6+zudL4Ta45HCH3H6zAKCgoKCgoKCgoKCgoKCgoKCgoK/r/4Dwr2Kwo0t/bjAAAAAElFTkSuQmCC;" vertex="1" parent="Mudxv_R2OKV88G6gSwlo-3">
          <mxGeometry x="880" y="298" width="78" height="78" as="geometry" />
        </mxCell>
        <mxCell id="Mudxv_R2OKV88G6gSwlo-46" value="Protection at the edge to avoid unnecessary resources consumption for cost optimization + better security" style="shape=note;whiteSpace=wrap;html=1;backgroundOutline=1;fontColor=#000000;darkOpacity=0.05;fillColor=#FFF9B2;strokeColor=none;fillStyle=solid;direction=west;gradientDirection=north;gradientColor=#FFF2A1;shadow=1;size=20;pointerEvents=1;" vertex="1" parent="Mudxv_R2OKV88G6gSwlo-3">
          <mxGeometry x="15" y="390" width="170" height="90" as="geometry" />
        </mxCell>
        <mxCell id="Mudxv_R2OKV88G6gSwlo-26" value="" style="edgeStyle=orthogonalEdgeStyle;rounded=0;orthogonalLoop=1;jettySize=auto;html=1;" edge="1" parent="1" source="Mudxv_R2OKV88G6gSwlo-5" target="Mudxv_R2OKV88G6gSwlo-11">
          <mxGeometry relative="1" as="geometry" />
        </mxCell>
        <mxCell id="Mudxv_R2OKV88G6gSwlo-5" value="end user" style="sketch=0;points=[[0,0,0],[0.25,0,0],[0.5,0,0],[0.75,0,0],[1,0,0],[0,1,0],[0.25,1,0],[0.5,1,0],[0.75,1,0],[1,1,0],[0,0.25,0],[0,0.5,0],[0,0.75,0],[1,0.25,0],[1,0.5,0],[1,0.75,0]];outlineConnect=0;fontColor=#232F3E;fillColor=#01A88D;strokeColor=#ffffff;dashed=0;verticalLabelPosition=bottom;verticalAlign=top;align=center;html=1;fontSize=12;fontStyle=0;aspect=fixed;shape=mxgraph.aws4.resourceIcon;resIcon=mxgraph.aws4.desktop_and_app_streaming;" vertex="1" parent="1">
          <mxGeometry x="10" y="355" width="78" height="78" as="geometry" />
        </mxCell>
      </root>
    </mxGraphModel>
  </diagram>
</mxfile>
